<svg width="69" height="36" viewBox="0 0 69 36" fill="none" xmlns="http://www.w3.org/2000/svg">
<path d="M53.0397 27.2588L53.0397 27.2589L53.0356 27.2615C50.1295 29.1454 47.4387 30.7355 45.0371 31.988C43.693 32.6903 42.2144 33.4021 40.8327 33.9389C39.4587 34.4728 38.1518 34.8453 37.1615 34.8453C36.5156 34.8453 35.9408 34.6857 35.6013 34.2343L35.6012 34.2341C35.2579 33.777 35.2685 33.1714 35.4556 32.5404C35.6445 31.9036 36.029 31.1824 36.5244 30.4315C37.517 28.927 38.9923 27.2474 40.382 25.7933C41.4148 24.7118 42.5975 23.551 43.909 22.3307C39.7018 22.7032 34.9926 22.8993 30.1853 22.8993C23.1031 22.8993 15.7933 22.4586 10.2491 21.6075C7.47922 21.1823 5.13683 20.6528 3.48122 20.0189C2.6546 19.7024 1.98363 19.3542 1.51501 18.969C1.04721 18.5845 0.75 18.1359 0.75 17.6223C0.75 17.1087 1.0472 16.6601 1.515 16.2755C1.98363 15.8903 2.65459 15.542 3.48122 15.2255C5.13682 14.5916 7.47921 14.0619 10.2491 13.6366C15.7933 12.7853 23.1031 12.3443 30.1853 12.3443C35.2422 12.3443 40.1485 12.5582 44.5015 12.9653C42.6619 11.5717 41.0297 10.2524 39.6338 9.03106L39.6337 9.03097C38.1208 7.70571 36.5025 6.1634 35.3806 4.75301C34.8206 4.04905 34.3737 3.3649 34.1292 2.74747C33.887 2.13577 33.8227 1.53365 34.1244 1.04806L34.1244 1.04802C34.4262 0.562301 34.9946 0.352688 35.6505 0.298404C36.3126 0.243614 37.1241 0.340729 38.0034 0.530461C39.7652 0.910585 41.8649 1.67755 43.723 2.44707C46.2178 3.47942 49.0385 4.82497 52.1112 6.44715L52.1112 6.44714L52.1133 6.4483L54.4564 7.71474L54.4565 7.71465L54.4629 7.7184L57.8316 9.67164L57.8316 9.67162L57.8345 9.67332C61.0952 11.6222 64.4508 13.6681 67.8084 15.7537L67.8085 15.7537L68.132 15.9547L68.4421 16.1475L68.1502 16.3669L67.8465 16.5952C64.9264 18.7985 61.7667 21.1333 58.4562 23.5374L58.4552 23.5381L57.0459 24.5504L57.0459 24.5505L57.04 24.5545L53.0397 27.2588ZM44.5648 31.0815L44.5649 31.0815C46.9338 29.8452 49.5963 28.2719 52.4771 26.4047C52.4774 26.4045 52.4776 26.4043 52.4779 26.4041L54.6884 24.9431L57.8563 22.7093C57.8567 22.7089 57.8572 22.7086 57.8577 22.7082C60.9379 20.4712 63.8876 18.2942 66.6342 16.2279C63.4941 14.2828 60.3604 12.3747 57.312 10.5517C57.3118 10.5517 57.3117 10.5516 57.3115 10.5515L55.1568 9.27659L51.6308 7.34956C51.6302 7.34928 51.6297 7.34899 51.6292 7.34871C48.5845 5.74139 45.7931 4.41046 43.3318 3.39282L43.3317 3.39276C39.7563 1.91179 37.6778 1.40947 36.4782 1.31335C35.2752 1.21696 35.0274 1.53133 34.9917 1.58789C34.9576 1.64363 34.7872 2.00427 35.407 3.03893C36.0257 4.07163 37.3976 5.71238 40.3081 8.26092L40.3081 8.26099C42.0434 9.78174 44.1581 11.46 46.592 13.25C46.592 13.2501 46.592 13.2501 46.5921 13.2501L47.3767 13.8266L48.1288 14.3792L47.2012 14.2766L46.2328 14.1694C41.4849 13.645 35.9356 13.3668 30.1853 13.3668C21.6223 13.3668 14.4713 13.9487 9.4663 14.8001C6.96197 15.2261 5.00545 15.7179 3.68064 16.2334C3.01688 16.4917 2.52555 16.7507 2.20469 17.0011C1.87725 17.2567 1.7725 17.4666 1.7725 17.6223C1.7725 17.778 1.87725 17.9879 2.20468 18.2434C2.52554 18.4938 3.01686 18.7528 3.68063 19.011C5.00544 19.5264 6.96196 20.0181 9.46629 20.444C14.4713 21.2951 21.6223 21.8768 30.1853 21.8768C35.5482 21.8768 40.7839 21.6322 45.3246 21.1688L46.1155 21.0882L46.8714 21.0112L46.3089 21.522L45.7201 22.0567L45.7199 22.0569C43.9701 23.6427 42.4234 25.1376 41.1211 26.4999C38.4484 29.2964 37.2277 31.0525 36.7033 32.1362C36.1758 33.2264 36.3815 33.5691 36.4194 33.6195L36.4195 33.6196C36.4569 33.6695 36.7283 33.9628 37.9217 33.7595C39.1082 33.5574 41.1345 32.873 44.5648 31.0815Z" fill="#333B41" stroke="#333B41" stroke-width="0.5"/>
</svg>
